<mxfile host="app.diagrams.net" modified="2021-02-21T19:13:49.731Z" agent="5.0 (Windows NT 10.0; Win64; x64) AppleWebKit/537.36 (KHTML, like Gecko) Chrome/88.0.4324.182 Safari/537.36" etag="P3TUQ7PH4dhA_4HNnAqA" version="14.3.0" type="github">
  <diagram id="TGHkn8QBNaWakmpJJzmX" name="Page-1">
    <mxGraphModel dx="1038" dy="1688" grid="1" gridSize="10" guides="1" tooltips="1" connect="1" arrows="1" fold="1" page="1" pageScale="1" pageWidth="850" pageHeight="1100" math="0" shadow="0">
      <root>
        <mxCell id="0" />
        <mxCell id="1" parent="0" />
        <mxCell id="C2FIVuwDX_6lYx2ateA--17" value="" style="rounded=0;whiteSpace=wrap;html=1;glass=0;fillColor=#b0e3e6;strokeColor=#0e8088;" vertex="1" parent="1">
          <mxGeometry x="330" y="420" width="90" height="130" as="geometry" />
        </mxCell>
        <mxCell id="C2FIVuwDX_6lYx2ateA--7" style="edgeStyle=orthogonalEdgeStyle;rounded=0;orthogonalLoop=1;jettySize=auto;html=1;" edge="1" parent="1" source="C2FIVuwDX_6lYx2ateA--2" target="C2FIVuwDX_6lYx2ateA--3">
          <mxGeometry relative="1" as="geometry">
            <Array as="points">
              <mxPoint x="365" y="30" />
              <mxPoint x="220" y="30" />
            </Array>
          </mxGeometry>
        </mxCell>
        <mxCell id="C2FIVuwDX_6lYx2ateA--8" style="edgeStyle=orthogonalEdgeStyle;rounded=0;orthogonalLoop=1;jettySize=auto;html=1;" edge="1" parent="1" source="C2FIVuwDX_6lYx2ateA--2" target="C2FIVuwDX_6lYx2ateA--4">
          <mxGeometry relative="1" as="geometry">
            <Array as="points">
              <mxPoint x="365" y="30" />
              <mxPoint x="510" y="30" />
            </Array>
          </mxGeometry>
        </mxCell>
        <mxCell id="C2FIVuwDX_6lYx2ateA--2" value="STUDENT&#39;S APP" style="text;html=1;align=center;verticalAlign=middle;resizable=0;points=[];autosize=1;fillColor=#fff2cc;strokeColor=#d6b656;rounded=0;glass=0;" vertex="1" parent="1">
          <mxGeometry x="310" y="-10" width="110" height="20" as="geometry" />
        </mxCell>
        <mxCell id="C2FIVuwDX_6lYx2ateA--6" style="edgeStyle=orthogonalEdgeStyle;rounded=0;orthogonalLoop=1;jettySize=auto;html=1;" edge="1" parent="1" source="C2FIVuwDX_6lYx2ateA--3" target="C2FIVuwDX_6lYx2ateA--5">
          <mxGeometry relative="1" as="geometry" />
        </mxCell>
        <mxCell id="C2FIVuwDX_6lYx2ateA--3" value="SIGNUP&lt;br&gt;&lt;br&gt;1. Name&lt;br&gt;2. Phone No.&lt;br&gt;3. Email&lt;br&gt;3. Parent&#39;s Name&lt;br&gt;4. Parent&#39;s No.&lt;br&gt;5. Password (For email)&lt;br&gt;6. OTP (Compulsory)" style="text;html=1;align=center;verticalAlign=middle;resizable=0;points=[];autosize=1;fillColor=#dae8fc;strokeColor=#6c8ebf;" vertex="1" parent="1">
          <mxGeometry x="150" y="85" width="140" height="130" as="geometry" />
        </mxCell>
        <mxCell id="C2FIVuwDX_6lYx2ateA--12" style="edgeStyle=orthogonalEdgeStyle;rounded=0;orthogonalLoop=1;jettySize=auto;html=1;endArrow=none;endFill=0;" edge="1" parent="1" source="C2FIVuwDX_6lYx2ateA--4">
          <mxGeometry relative="1" as="geometry">
            <mxPoint x="370" y="350" as="targetPoint" />
            <Array as="points">
              <mxPoint x="510" y="350" />
            </Array>
          </mxGeometry>
        </mxCell>
        <mxCell id="C2FIVuwDX_6lYx2ateA--4" value="LOGIN&lt;br&gt;&lt;br&gt;1. Phone No login using OTP&lt;br&gt;or&lt;br&gt;2. Email login using password&lt;br&gt;or&lt;br&gt;3. Continue as Guest" style="text;html=1;align=center;verticalAlign=middle;resizable=0;points=[];autosize=1;fillColor=#dae8fc;strokeColor=#6c8ebf;" vertex="1" parent="1">
          <mxGeometry x="425" y="85" width="170" height="100" as="geometry" />
        </mxCell>
        <mxCell id="C2FIVuwDX_6lYx2ateA--10" style="edgeStyle=orthogonalEdgeStyle;rounded=0;orthogonalLoop=1;jettySize=auto;html=1;" edge="1" parent="1" source="C2FIVuwDX_6lYx2ateA--5" target="C2FIVuwDX_6lYx2ateA--9">
          <mxGeometry relative="1" as="geometry">
            <Array as="points">
              <mxPoint x="220" y="350" />
              <mxPoint x="375" y="350" />
            </Array>
          </mxGeometry>
        </mxCell>
        <mxCell id="C2FIVuwDX_6lYx2ateA--5" value="PG Details (Optional)&lt;br&gt;&lt;br&gt;1. City&lt;br&gt;2. Area&lt;br&gt;3. PG Name" style="text;html=1;align=center;verticalAlign=middle;resizable=0;points=[];autosize=1;fillColor=#dae8fc;strokeColor=#6c8ebf;" vertex="1" parent="1">
          <mxGeometry x="155" y="260" width="130" height="70" as="geometry" />
        </mxCell>
        <mxCell id="C2FIVuwDX_6lYx2ateA--9" value="Home Activity" style="text;html=1;align=center;verticalAlign=middle;resizable=0;points=[];autosize=1;fillColor=#b0e3e6;strokeColor=#0e8088;" vertex="1" parent="1">
          <mxGeometry x="330" y="390" width="90" height="20" as="geometry" />
        </mxCell>
        <mxCell id="C2FIVuwDX_6lYx2ateA--13" value="Account" style="text;html=1;align=center;verticalAlign=middle;resizable=0;points=[];autosize=1;fillColor=#d5e8d4;strokeColor=#82b366;" vertex="1" parent="1">
          <mxGeometry x="345" y="520" width="60" height="20" as="geometry" />
        </mxCell>
        <mxCell id="C2FIVuwDX_6lYx2ateA--14" value="Explore" style="text;html=1;align=center;verticalAlign=middle;resizable=0;points=[];autosize=1;fillColor=#d5e8d4;strokeColor=#82b366;" vertex="1" parent="1">
          <mxGeometry x="345" y="460" width="60" height="20" as="geometry" />
        </mxCell>
        <mxCell id="C2FIVuwDX_6lYx2ateA--19" style="edgeStyle=orthogonalEdgeStyle;rounded=0;orthogonalLoop=1;jettySize=auto;html=1;endArrow=blockThin;endFill=1;" edge="1" parent="1" source="C2FIVuwDX_6lYx2ateA--15" target="C2FIVuwDX_6lYx2ateA--18">
          <mxGeometry relative="1" as="geometry" />
        </mxCell>
        <mxCell id="C2FIVuwDX_6lYx2ateA--15" value="Nest" style="text;html=1;align=center;verticalAlign=middle;resizable=0;points=[];autosize=1;fillColor=#d5e8d4;strokeColor=#82b366;" vertex="1" parent="1">
          <mxGeometry x="355" y="430" width="40" height="20" as="geometry" />
        </mxCell>
        <mxCell id="C2FIVuwDX_6lYx2ateA--16" value="Location" style="text;html=1;align=center;verticalAlign=middle;resizable=0;points=[];autosize=1;fillColor=#d5e8d4;strokeColor=#82b366;" vertex="1" parent="1">
          <mxGeometry x="345" y="490" width="60" height="20" as="geometry" />
        </mxCell>
        <mxCell id="C2FIVuwDX_6lYx2ateA--18" value="Show few latest PGs and &lt;br&gt;Best PGs in various ratings" style="text;html=1;align=center;verticalAlign=middle;resizable=0;points=[];autosize=1;fillColor=#fad9d5;strokeColor=#ae4132;" vertex="1" parent="1">
          <mxGeometry x="520" y="425" width="160" height="30" as="geometry" />
        </mxCell>
        <mxCell id="C2FIVuwDX_6lYx2ateA--20" value="Search with current location&lt;br&gt;or&lt;br&gt;Search with typing.&lt;br&gt;&lt;br&gt;The results will be shown in a map" style="text;html=1;align=center;verticalAlign=middle;resizable=0;points=[];autosize=1;" vertex="1" parent="1">
          <mxGeometry x="90" y="435" width="200" height="70" as="geometry" />
        </mxCell>
      </root>
    </mxGraphModel>
  </diagram>
</mxfile>
